<svg width="768" height="293" viewBox="0 0 768 293" fill="none" xmlns="http://www.w3.org/2000/svg">
  <path fill-rule="evenodd" clip-rule="evenodd" d="M401.431 96.8636L407.459 99.9606C407.789 100.131 407.998 100.468 408 100.838C408.002 101.209 407.799 101.549 407.471 101.724L392.471 109.687C392.324 109.765 392.162 109.804 392 109.804C391.842 109.804 391.686 109.767 391.541 109.693L384 105.819L376.459 109.693C376.314 109.767 376.158 109.804 376 109.804C375.838 109.804 375.676 109.765 375.529 109.687L360.529 101.724C360.201 101.549 359.998 101.209 360 100.838C360.002 100.468 360.211 100.131 360.541 99.9606L366.569 96.8637L360.541 93.7666C360.211 93.5965 360.002 93.2592 360 92.8888C359.998 92.5185 360.201 92.1783 360.529 92.0033L375.529 84.0401C375.816 83.8865 376.166 83.8845 376.459 84.0342L384 87.9083L391.541 84.0341C391.834 83.8845 392.18 83.8864 392.471 84.04L407.471 92.0032C407.799 92.1782 408.002 92.5184 408 92.8887C407.998 93.2591 407.789 93.5964 407.459 93.7665L401.431 96.8636ZM370.931 96.8637L384 103.578L397.069 96.8636L384 90.1492L370.931 96.8637Z" fill="#C6CDD7"/>
  <path d="M382.519 109.356C382.225 109.176 381.852 109.163 381.541 109.322L377.375 111.462C376.517 111.904 375.443 111.896 374.588 111.443L369.471 108.726C369.162 108.562 368.789 108.57 368.486 108.751C368.184 108.931 368 109.255 368 109.605V118.026C368 118.394 368.203 118.732 368.529 118.905L381.529 125.807C381.676 125.884 381.838 125.923 382 125.923C382.178 125.923 382.355 125.876 382.514 125.781C382.816 125.602 383 125.278 383 124.928V110.206C383 109.859 382.818 109.537 382.519 109.356Z" fill="#C6CDD7"/>
  <path d="M398.529 108.726C398.836 108.562 399.211 108.57 399.514 108.751C399.816 108.931 400 109.255 400 109.605V118.026C400 118.394 399.797 118.732 399.471 118.905L386.471 125.807C386.324 125.884 386.162 125.923 386 125.923C385.822 125.923 385.645 125.876 385.486 125.781C385.184 125.602 385 125.278 385 124.928V110.206C385 109.859 385.182 109.537 385.48 109.356C385.775 109.176 386.148 109.162 386.459 109.322L390.625 111.462C391.48 111.904 392.557 111.897 393.412 111.443L398.529 108.726Z" fill="#C6CDD7"/>
  <path d="M300.082 177.923H297.493V164.41H292.896V162.218H304.669V164.41H300.082V177.923ZM309.342 161.208V165.409C309.342 165.846 309.327 166.272 309.299 166.687C309.277 167.102 309.252 167.425 309.224 167.654H309.363C309.614 167.238 309.922 166.898 310.287 166.633C310.652 166.361 311.061 166.157 311.512 166.021C311.97 165.885 312.457 165.817 312.973 165.817C313.882 165.817 314.656 165.971 315.293 166.279C315.93 166.58 316.417 167.049 316.754 167.686C317.098 168.323 317.27 169.151 317.27 170.167V177.923H314.745V170.64C314.745 169.716 314.555 169.025 314.176 168.567C313.796 168.101 313.209 167.869 312.414 167.869C311.648 167.869 311.039 168.03 310.588 168.352C310.144 168.667 309.825 169.136 309.632 169.759C309.438 170.375 309.342 171.127 309.342 172.015V177.923H306.817V161.208H309.342ZM325.541 165.806C326.601 165.806 327.51 166.025 328.27 166.461C329.029 166.898 329.612 167.518 330.021 168.32C330.429 169.122 330.633 170.082 330.633 171.199V172.552H322.694C322.723 173.705 323.031 174.593 323.618 175.216C324.213 175.839 325.043 176.151 326.11 176.151C326.869 176.151 327.55 176.079 328.151 175.936C328.76 175.786 329.387 175.567 330.031 175.281V177.333C329.437 177.612 328.832 177.816 328.216 177.945C327.6 178.074 326.862 178.138 326.003 178.138C324.836 178.138 323.808 177.913 322.92 177.461C322.039 177.003 321.348 176.323 320.847 175.42C320.353 174.518 320.105 173.397 320.105 172.058C320.105 170.726 320.331 169.595 320.782 168.664C321.233 167.733 321.867 167.024 322.684 166.537C323.5 166.05 324.452 165.806 325.541 165.806ZM325.541 167.708C324.746 167.708 324.102 167.965 323.607 168.481C323.12 168.997 322.834 169.752 322.748 170.748H328.162C328.155 170.153 328.055 169.627 327.861 169.168C327.675 168.71 327.389 168.352 327.002 168.094C326.622 167.836 326.135 167.708 325.541 167.708ZM343.985 178.138C342.861 178.138 341.887 177.92 341.063 177.483C340.24 177.046 339.606 176.376 339.162 175.474C338.718 174.572 338.496 173.426 338.496 172.037C338.496 170.59 338.74 169.408 339.227 168.492C339.714 167.575 340.387 166.898 341.246 166.461C342.113 166.025 343.104 165.806 344.222 165.806C344.931 165.806 345.572 165.878 346.145 166.021C346.725 166.157 347.215 166.325 347.616 166.526L346.864 168.545C346.427 168.366 345.98 168.216 345.521 168.094C345.063 167.972 344.623 167.912 344.2 167.912C343.506 167.912 342.925 168.066 342.46 168.374C342.002 168.681 341.658 169.14 341.429 169.749C341.207 170.357 341.096 171.113 341.096 172.015C341.096 172.889 341.21 173.626 341.439 174.228C341.669 174.822 342.009 175.274 342.46 175.582C342.911 175.882 343.466 176.033 344.125 176.033C344.777 176.033 345.36 175.954 345.876 175.796C346.392 175.639 346.879 175.435 347.337 175.184V177.375C346.886 177.633 346.402 177.823 345.887 177.945C345.371 178.074 344.737 178.138 343.985 178.138ZM354.792 165.806C356.296 165.806 357.431 166.139 358.197 166.805C358.971 167.471 359.357 168.51 359.357 169.92V177.923H357.563L357.08 176.237H356.994C356.658 176.667 356.31 177.021 355.952 177.3C355.594 177.58 355.179 177.787 354.706 177.923C354.241 178.067 353.671 178.138 352.998 178.138C352.289 178.138 351.655 178.009 351.097 177.751C350.538 177.486 350.098 177.085 349.775 176.548C349.453 176.011 349.292 175.331 349.292 174.507C349.292 173.283 349.747 172.362 350.656 171.747C351.573 171.131 352.955 170.791 354.803 170.726L356.865 170.651V170.028C356.865 169.204 356.672 168.617 356.285 168.266C355.906 167.915 355.368 167.74 354.674 167.74C354.079 167.74 353.503 167.826 352.944 167.998C352.386 168.169 351.841 168.381 351.312 168.631L350.495 166.848C351.075 166.54 351.734 166.29 352.472 166.096C353.216 165.903 353.99 165.806 354.792 165.806ZM356.854 172.241L355.318 172.294C354.058 172.337 353.174 172.552 352.665 172.939C352.157 173.326 351.902 173.856 351.902 174.529C351.902 175.116 352.078 175.546 352.429 175.818C352.78 176.083 353.242 176.215 353.814 176.215C354.688 176.215 355.411 175.968 355.984 175.474C356.564 174.973 356.854 174.239 356.854 173.272V172.241ZM368.918 165.806C369.118 165.806 369.337 165.817 369.573 165.838C369.81 165.86 370.014 165.889 370.186 165.924L369.949 168.288C369.799 168.245 369.613 168.212 369.391 168.191C369.176 168.169 368.982 168.159 368.811 168.159C368.359 168.159 367.93 168.234 367.521 168.384C367.113 168.528 366.752 168.75 366.437 169.05C366.121 169.344 365.874 169.713 365.695 170.157C365.516 170.601 365.427 171.116 365.427 171.704V177.923H362.892V166.032H364.868L365.212 168.126H365.33C365.566 167.704 365.86 167.317 366.211 166.966C366.562 166.615 366.963 166.336 367.414 166.128C367.872 165.914 368.374 165.806 368.918 165.806ZM376.813 176.097C377.143 176.097 377.469 176.069 377.791 176.011C378.113 175.947 378.407 175.872 378.672 175.786V177.698C378.393 177.819 378.031 177.923 377.587 178.009C377.143 178.095 376.681 178.138 376.201 178.138C375.528 178.138 374.923 178.027 374.386 177.805C373.849 177.576 373.423 177.186 373.107 176.634C372.792 176.083 372.635 175.32 372.635 174.346V167.955H371.013V166.827L372.753 165.935L373.58 163.389H375.17V166.032H378.575V167.955H375.17V174.314C375.17 174.916 375.32 175.363 375.621 175.657C375.922 175.95 376.319 176.097 376.813 176.097ZM389.328 166.032V177.923H386.804V166.032H389.328ZM388.082 161.477C388.469 161.477 388.802 161.581 389.081 161.789C389.368 161.996 389.511 162.354 389.511 162.863C389.511 163.364 389.368 163.722 389.081 163.937C388.802 164.145 388.469 164.249 388.082 164.249C387.681 164.249 387.341 164.145 387.062 163.937C386.789 163.722 386.653 163.364 386.653 162.863C386.653 162.354 386.789 161.996 387.062 161.789C387.341 161.581 387.681 161.477 388.082 161.477ZM400.94 174.529C400.94 175.309 400.751 175.968 400.371 176.505C399.992 177.042 399.437 177.451 398.706 177.73C397.983 178.002 397.095 178.138 396.042 178.138C395.211 178.138 394.495 178.077 393.894 177.956C393.299 177.841 392.737 177.662 392.207 177.418V175.238C392.773 175.503 393.407 175.732 394.108 175.925C394.817 176.119 395.487 176.215 396.117 176.215C396.948 176.215 397.546 176.086 397.911 175.829C398.276 175.564 398.459 175.213 398.459 174.776C398.459 174.518 398.384 174.289 398.233 174.088C398.09 173.881 397.818 173.669 397.417 173.455C397.023 173.233 396.443 172.968 395.677 172.66C394.925 172.359 394.291 172.058 393.775 171.757C393.26 171.457 392.869 171.095 392.604 170.672C392.34 170.243 392.207 169.695 392.207 169.029C392.207 167.976 392.622 167.178 393.453 166.633C394.291 166.082 395.397 165.806 396.772 165.806C397.503 165.806 398.19 165.881 398.835 166.032C399.487 166.175 400.124 166.386 400.747 166.666L399.952 168.567C399.415 168.331 398.874 168.137 398.33 167.987C397.793 167.829 397.245 167.75 396.687 167.75C396.035 167.75 395.537 167.851 395.193 168.051C394.857 168.252 394.688 168.538 394.688 168.911C394.688 169.19 394.771 169.426 394.936 169.62C395.1 169.813 395.383 170.006 395.784 170.2C396.192 170.393 396.758 170.633 397.481 170.919C398.19 171.192 398.803 171.478 399.318 171.779C399.841 172.072 400.242 172.434 400.521 172.864C400.801 173.293 400.94 173.848 400.94 174.529ZM414.121 165.806C415.181 165.806 416.09 166.025 416.85 166.461C417.609 166.898 418.192 167.518 418.601 168.32C419.009 169.122 419.213 170.082 419.213 171.199V172.552H411.274C411.303 173.705 411.611 174.593 412.198 175.216C412.793 175.839 413.623 176.151 414.69 176.151C415.45 176.151 416.13 176.079 416.731 175.936C417.34 175.786 417.967 175.567 418.611 175.281V177.333C418.017 177.612 417.412 177.816 416.796 177.945C416.18 178.074 415.442 178.138 414.583 178.138C413.416 178.138 412.388 177.913 411.5 177.461C410.619 177.003 409.928 176.323 409.427 175.42C408.933 174.518 408.686 173.397 408.686 172.058C408.686 170.726 408.911 169.595 409.362 168.664C409.813 167.733 410.447 167.024 411.264 166.537C412.08 166.05 413.033 165.806 414.121 165.806ZM414.121 167.708C413.326 167.708 412.682 167.965 412.188 168.481C411.701 168.997 411.414 169.752 411.328 170.748H416.742C416.735 170.153 416.635 169.627 416.441 169.168C416.255 168.71 415.969 168.352 415.582 168.094C415.202 167.836 414.715 167.708 414.121 167.708ZM435.498 165.806C436.83 165.806 437.833 166.15 438.506 166.837C439.186 167.525 439.526 168.628 439.526 170.146V177.923H437.002V170.597C437.002 169.695 436.826 169.014 436.476 168.556C436.125 168.098 435.591 167.869 434.875 167.869C433.872 167.869 433.149 168.191 432.705 168.835C432.268 169.473 432.05 170.4 432.05 171.618V177.923H429.525V170.597C429.525 169.996 429.447 169.494 429.289 169.093C429.139 168.685 428.906 168.381 428.591 168.18C428.276 167.972 427.878 167.869 427.398 167.869C426.704 167.869 426.149 168.026 425.733 168.341C425.325 168.656 425.032 169.122 424.853 169.738C424.674 170.347 424.584 171.095 424.584 171.983V177.923H422.06V166.032H424.025L424.38 167.632H424.52C424.763 167.217 425.064 166.877 425.422 166.612C425.787 166.34 426.192 166.139 426.636 166.01C427.08 165.874 427.542 165.806 428.021 165.806C428.91 165.806 429.658 165.964 430.267 166.279C430.875 166.587 431.33 167.059 431.631 167.697H431.824C432.197 167.052 432.716 166.576 433.382 166.268C434.048 165.96 434.753 165.806 435.498 165.806ZM449.151 165.806C450.562 165.806 451.694 166.322 452.546 167.353C453.405 168.384 453.835 169.917 453.835 171.951C453.835 173.297 453.634 174.432 453.233 175.356C452.84 176.273 452.285 176.967 451.568 177.44C450.859 177.905 450.032 178.138 449.087 178.138C448.485 178.138 447.963 178.059 447.519 177.902C447.075 177.744 446.695 177.54 446.38 177.29C446.065 177.032 445.8 176.752 445.585 176.452H445.435C445.47 176.738 445.503 177.057 445.531 177.408C445.567 177.751 445.585 178.067 445.585 178.353V183.198H443.05V166.032H445.112L445.467 167.675H445.585C445.807 167.339 446.076 167.027 446.391 166.741C446.713 166.454 447.1 166.229 447.551 166.064C448.009 165.892 448.543 165.806 449.151 165.806ZM448.475 167.869C447.78 167.869 447.221 168.008 446.799 168.288C446.383 168.56 446.079 168.972 445.886 169.523C445.7 170.074 445.599 170.765 445.585 171.596V171.951C445.585 172.832 445.674 173.58 445.854 174.196C446.04 174.805 446.344 175.27 446.767 175.592C447.196 175.907 447.776 176.065 448.507 176.065C449.123 176.065 449.631 175.897 450.032 175.56C450.44 175.223 450.745 174.744 450.945 174.121C451.146 173.498 451.246 172.764 451.246 171.918C451.246 170.637 451.017 169.641 450.559 168.932C450.107 168.223 449.413 167.869 448.475 167.869ZM461.183 176.097C461.512 176.097 461.838 176.069 462.16 176.011C462.482 175.947 462.776 175.872 463.041 175.786V177.698C462.762 177.819 462.4 177.923 461.956 178.009C461.512 178.095 461.05 178.138 460.57 178.138C459.897 178.138 459.292 178.027 458.755 177.805C458.218 177.576 457.792 177.186 457.477 176.634C457.161 176.083 457.004 175.32 457.004 174.346V167.955H455.382V166.827L457.122 165.935L457.949 163.389H459.539V166.032H462.944V167.955H459.539V174.314C459.539 174.916 459.689 175.363 459.99 175.657C460.291 175.95 460.688 176.097 461.183 176.097ZM463.664 166.032H466.414L468.853 172.821C468.96 173.129 469.057 173.433 469.143 173.734C469.236 174.028 469.314 174.318 469.379 174.604C469.451 174.89 469.508 175.177 469.551 175.463H469.615C469.687 175.091 469.787 174.676 469.916 174.217C470.052 173.752 470.202 173.286 470.367 172.821L472.709 166.032H475.427L470.324 179.556C470.031 180.33 469.669 180.988 469.239 181.533C468.817 182.084 468.315 182.5 467.735 182.779C467.155 183.065 466.493 183.208 465.748 183.208C465.39 183.208 465.078 183.187 464.813 183.144C464.549 183.108 464.323 183.069 464.137 183.026V181.006C464.287 181.042 464.477 181.074 464.706 181.103C464.935 181.132 465.172 181.146 465.415 181.146C465.866 181.146 466.257 181.056 466.586 180.877C466.915 180.698 467.195 180.444 467.424 180.115C467.653 179.792 467.843 179.424 467.993 179.008L468.412 177.891L463.664 166.032Z" fill="#1E1E3C"/>
  <path d="M303.302 207.923L302.071 204.751H298.065L296.842 207.923H295.666L299.576 197.888H300.622L304.505 207.923H303.302ZM301.723 203.719L300.554 200.568C300.526 200.486 300.481 200.351 300.417 200.165C300.358 199.978 300.296 199.784 300.232 199.583C300.169 199.383 300.116 199.221 300.075 199.098C300.03 199.285 299.979 199.472 299.925 199.659C299.875 199.841 299.825 200.012 299.774 200.171C299.724 200.326 299.681 200.458 299.645 200.568L298.455 203.719H301.723ZM308.388 208.06C307.44 208.06 306.688 207.736 306.132 207.089C305.58 206.442 305.305 205.481 305.305 204.205C305.305 202.915 305.587 201.942 306.152 201.286C306.717 200.625 307.469 200.294 308.408 200.294C308.805 200.294 309.151 200.347 309.447 200.452C309.743 200.556 309.999 200.698 310.213 200.875C310.427 201.049 310.607 201.247 310.753 201.47H310.835C310.817 201.329 310.799 201.135 310.78 200.889C310.762 200.643 310.753 200.443 310.753 200.288V197.287H311.888V207.923H310.972L310.801 206.857H310.753C310.612 207.08 310.432 207.283 310.213 207.465C309.999 207.648 309.741 207.793 309.44 207.903C309.144 208.008 308.793 208.06 308.388 208.06ZM308.565 207.117C309.368 207.117 309.935 206.889 310.268 206.433C310.6 205.977 310.767 205.301 310.767 204.403V204.198C310.767 203.245 310.607 202.514 310.288 202.003C309.974 201.493 309.399 201.238 308.565 201.238C307.868 201.238 307.346 201.507 307 202.044C306.654 202.578 306.48 203.307 306.48 204.232C306.48 205.153 306.651 205.863 306.993 206.365C307.34 206.866 307.864 207.117 308.565 207.117ZM316.96 208.06C316.012 208.06 315.26 207.736 314.704 207.089C314.153 206.442 313.877 205.481 313.877 204.205C313.877 202.915 314.16 201.942 314.725 201.286C315.29 200.625 316.042 200.294 316.98 200.294C317.377 200.294 317.723 200.347 318.02 200.452C318.316 200.556 318.571 200.698 318.785 200.875C318.999 201.049 319.179 201.247 319.325 201.47H319.407C319.389 201.329 319.371 201.135 319.353 200.889C319.334 200.643 319.325 200.443 319.325 200.288V197.287H320.46V207.923H319.544L319.373 206.857H319.325C319.184 207.08 319.004 207.283 318.785 207.465C318.571 207.648 318.313 207.793 318.013 207.903C317.716 208.008 317.366 208.06 316.96 208.06ZM317.138 207.117C317.94 207.117 318.507 206.889 318.84 206.433C319.173 205.977 319.339 205.301 319.339 204.403V204.198C319.339 203.245 319.179 202.514 318.86 202.003C318.546 201.493 317.972 201.238 317.138 201.238C316.44 201.238 315.919 201.507 315.572 202.044C315.226 202.578 315.053 203.307 315.053 204.232C315.053 205.153 315.224 205.863 315.565 206.365C315.912 206.866 316.436 207.117 317.138 207.117ZM327.638 200.431V207.923H326.503V200.431H327.638ZM327.084 197.628C327.271 197.628 327.43 197.69 327.562 197.813C327.699 197.931 327.768 198.118 327.768 198.374C327.768 198.624 327.699 198.811 327.562 198.934C327.43 199.057 327.271 199.119 327.084 199.119C326.888 199.119 326.724 199.057 326.592 198.934C326.464 198.811 326.4 198.624 326.4 198.374C326.4 198.118 326.464 197.931 326.592 197.813C326.724 197.69 326.888 197.628 327.084 197.628ZM332.464 207.13C332.651 207.13 332.842 207.114 333.038 207.083C333.234 207.051 333.394 207.012 333.517 206.966V207.848C333.384 207.907 333.2 207.958 332.963 207.999C332.73 208.04 332.503 208.06 332.279 208.06C331.883 208.06 331.523 207.992 331.199 207.855C330.876 207.714 330.616 207.477 330.42 207.144C330.229 206.811 330.133 206.351 330.133 205.763V201.32H329.066V200.766L330.14 200.322L330.591 198.695H331.274V200.431H333.469V201.32H331.274V205.729C331.274 206.198 331.382 206.549 331.596 206.782C331.814 207.014 332.104 207.13 332.464 207.13ZM337.919 200.294C338.557 200.294 339.104 200.436 339.56 200.718C340.015 201.001 340.364 201.397 340.605 201.908C340.847 202.414 340.968 203.006 340.968 203.685V204.389H335.793C335.807 205.269 336.025 205.939 336.449 206.399C336.873 206.859 337.47 207.089 338.24 207.089C338.714 207.089 339.133 207.046 339.498 206.959C339.863 206.873 340.241 206.745 340.633 206.577V207.575C340.255 207.743 339.879 207.866 339.505 207.944C339.136 208.021 338.698 208.06 338.192 208.06C337.472 208.06 336.843 207.914 336.306 207.623C335.772 207.326 335.358 206.893 335.062 206.324C334.765 205.754 334.617 205.057 334.617 204.232C334.617 203.425 334.752 202.728 335.021 202.14C335.294 201.548 335.677 201.092 336.169 200.773C336.666 200.454 337.249 200.294 337.919 200.294ZM337.905 201.224C337.299 201.224 336.816 201.422 336.456 201.819C336.096 202.215 335.882 202.769 335.813 203.48H339.778C339.774 203.033 339.703 202.641 339.566 202.304C339.434 201.962 339.231 201.698 338.958 201.511C338.685 201.32 338.334 201.224 337.905 201.224ZM351.03 200.294C351.855 200.294 352.477 200.511 352.896 200.944C353.316 201.372 353.525 202.063 353.525 203.015V207.923H352.404V203.07C352.404 202.464 352.272 202.01 352.008 201.709C351.748 201.404 351.361 201.251 350.846 201.251C350.121 201.251 349.595 201.461 349.267 201.88C348.938 202.3 348.774 202.917 348.774 203.733V207.923H347.646V203.07C347.646 202.664 347.587 202.327 347.469 202.058C347.355 201.789 347.182 201.589 346.949 201.457C346.721 201.32 346.432 201.251 346.081 201.251C345.584 201.251 345.186 201.354 344.885 201.559C344.584 201.764 344.365 202.069 344.229 202.475C344.096 202.876 344.03 203.371 344.03 203.958V207.923H342.896V200.431H343.812L343.982 201.491H344.044C344.194 201.231 344.383 201.012 344.611 200.834C344.839 200.657 345.094 200.522 345.377 200.431C345.66 200.34 345.96 200.294 346.279 200.294C346.849 200.294 347.325 200.402 347.708 200.616C348.095 200.825 348.376 201.147 348.549 201.58H348.61C348.856 201.147 349.194 200.825 349.622 200.616C350.05 200.402 350.52 200.294 351.03 200.294ZM360.703 205.873C360.703 206.351 360.582 206.754 360.341 207.083C360.104 207.406 359.762 207.65 359.315 207.814C358.873 207.978 358.345 208.06 357.729 208.06C357.205 208.06 356.752 208.019 356.369 207.937C355.986 207.855 355.651 207.739 355.364 207.588V206.542C355.67 206.693 356.034 206.83 356.458 206.953C356.882 207.076 357.315 207.137 357.757 207.137C358.404 207.137 358.873 207.032 359.165 206.823C359.457 206.613 359.603 206.328 359.603 205.968C359.603 205.763 359.543 205.583 359.425 205.428C359.311 205.269 359.117 205.116 358.844 204.97C358.57 204.82 358.192 204.656 357.709 204.478C357.23 204.296 356.816 204.116 356.465 203.938C356.118 203.756 355.85 203.535 355.658 203.275C355.471 203.015 355.378 202.678 355.378 202.263C355.378 201.63 355.633 201.144 356.144 200.807C356.659 200.465 357.333 200.294 358.167 200.294C358.618 200.294 359.04 200.34 359.432 200.431C359.828 200.518 360.197 200.636 360.539 200.787L360.156 201.696C359.846 201.564 359.516 201.452 359.165 201.361C358.814 201.27 358.456 201.224 358.092 201.224C357.568 201.224 357.164 201.311 356.882 201.484C356.604 201.657 356.465 201.894 356.465 202.195C356.465 202.427 356.529 202.619 356.656 202.769C356.788 202.919 356.998 203.061 357.285 203.193C357.572 203.325 357.951 203.48 358.42 203.658C358.889 203.831 359.295 204.011 359.637 204.198C359.979 204.38 360.241 204.603 360.423 204.868C360.61 205.127 360.703 205.462 360.703 205.873ZM369.501 201.32H367.635V207.923H366.5V201.32H365.174V200.773L366.5 200.397V199.898C366.5 199.269 366.593 198.759 366.78 198.367C366.967 197.97 367.238 197.679 367.594 197.492C367.949 197.305 368.382 197.211 368.893 197.211C369.18 197.211 369.442 197.236 369.679 197.287C369.92 197.337 370.132 197.394 370.314 197.458L370.021 198.353C369.866 198.303 369.69 198.257 369.494 198.216C369.303 198.171 369.107 198.148 368.906 198.148C368.473 198.148 368.152 198.289 367.942 198.572C367.737 198.85 367.635 199.287 367.635 199.884V200.431H369.501V201.32ZM374.286 200.294C374.437 200.294 374.594 200.304 374.758 200.322C374.922 200.335 375.068 200.356 375.195 200.383L375.052 201.436C374.929 201.404 374.792 201.379 374.642 201.361C374.491 201.343 374.35 201.333 374.218 201.333C373.917 201.333 373.632 201.395 373.363 201.518C373.099 201.637 372.867 201.81 372.666 202.038C372.465 202.261 372.308 202.532 372.194 202.851C372.08 203.166 372.023 203.516 372.023 203.904V207.923H370.882V200.431H371.825L371.948 201.812H371.996C372.151 201.534 372.338 201.281 372.557 201.053C372.775 200.821 373.028 200.636 373.315 200.5C373.607 200.363 373.931 200.294 374.286 200.294ZM383.07 204.164C383.07 204.779 382.991 205.328 382.831 205.811C382.672 206.294 382.441 206.702 382.141 207.035C381.84 207.367 381.475 207.623 381.047 207.8C380.623 207.973 380.142 208.06 379.604 208.06C379.103 208.06 378.643 207.973 378.224 207.8C377.809 207.623 377.449 207.367 377.144 207.035C376.843 206.702 376.608 206.294 376.439 205.811C376.275 205.328 376.193 204.779 376.193 204.164C376.193 203.343 376.332 202.646 376.61 202.072C376.888 201.493 377.285 201.053 377.8 200.752C378.319 200.447 378.937 200.294 379.652 200.294C380.336 200.294 380.933 200.447 381.443 200.752C381.958 201.058 382.357 201.5 382.64 202.079C382.927 202.653 383.07 203.348 383.07 204.164ZM377.369 204.164C377.369 204.765 377.449 205.287 377.608 205.729C377.768 206.171 378.014 206.513 378.347 206.754C378.679 206.996 379.108 207.117 379.632 207.117C380.151 207.117 380.577 206.996 380.91 206.754C381.247 206.513 381.496 206.171 381.655 205.729C381.815 205.287 381.895 204.765 381.895 204.164C381.895 203.567 381.815 203.052 381.655 202.619C381.496 202.181 381.25 201.844 380.917 201.607C380.584 201.37 380.154 201.251 379.625 201.251C378.846 201.251 378.274 201.509 377.909 202.024C377.549 202.539 377.369 203.252 377.369 204.164ZM393.167 200.294C393.992 200.294 394.614 200.511 395.033 200.944C395.452 201.372 395.662 202.063 395.662 203.015V207.923H394.541V203.07C394.541 202.464 394.409 202.01 394.145 201.709C393.885 201.404 393.497 201.251 392.982 201.251C392.258 201.251 391.731 201.461 391.403 201.88C391.075 202.3 390.911 202.917 390.911 203.733V207.923H389.783V203.07C389.783 202.664 389.724 202.327 389.605 202.058C389.492 201.789 389.318 201.589 389.086 201.457C388.858 201.32 388.569 201.251 388.218 201.251C387.721 201.251 387.322 201.354 387.021 201.559C386.721 201.764 386.502 202.069 386.365 202.475C386.233 202.876 386.167 203.371 386.167 203.958V207.923H385.032V200.431H385.948L386.119 201.491H386.181C386.331 201.231 386.52 201.012 386.748 200.834C386.976 200.657 387.231 200.522 387.514 200.431C387.796 200.34 388.097 200.294 388.416 200.294C388.986 200.294 389.462 200.402 389.845 200.616C390.232 200.825 390.512 201.147 390.686 201.58H390.747C390.993 201.147 391.33 200.825 391.759 200.616C392.187 200.402 392.657 200.294 393.167 200.294ZM404.05 207.13C404.237 207.13 404.428 207.114 404.624 207.083C404.82 207.051 404.979 207.012 405.103 206.966V207.848C404.97 207.907 404.786 207.958 404.549 207.999C404.316 208.04 404.089 208.06 403.865 208.06C403.469 208.06 403.109 207.992 402.785 207.855C402.462 207.714 402.202 207.477 402.006 207.144C401.814 206.811 401.719 206.351 401.719 205.763V201.32H400.652V200.766L401.726 200.322L402.177 198.695H402.86V200.431H405.055V201.32H402.86V205.729C402.86 206.198 402.967 206.549 403.182 206.782C403.4 207.014 403.69 207.13 404.05 207.13ZM407.755 197.287V200.465C407.755 200.648 407.75 200.832 407.741 201.019C407.732 201.201 407.716 201.37 407.693 201.525H407.769C407.924 201.261 408.119 201.04 408.356 200.862C408.598 200.68 408.871 200.543 409.177 200.452C409.482 200.356 409.806 200.308 410.147 200.308C410.749 200.308 411.25 200.404 411.651 200.595C412.057 200.787 412.36 201.083 412.561 201.484C412.766 201.885 412.868 202.404 412.868 203.042V207.923H411.747V203.118C411.747 202.493 411.604 202.026 411.316 201.716C411.034 201.406 410.599 201.251 410.011 201.251C409.455 201.251 409.01 201.359 408.678 201.573C408.35 201.782 408.113 202.092 407.967 202.502C407.826 202.913 407.755 203.414 407.755 204.006V207.923H406.62V197.287H407.755ZM418.091 200.294C418.729 200.294 419.276 200.436 419.731 200.718C420.187 201.001 420.536 201.397 420.777 201.908C421.019 202.414 421.14 203.006 421.14 203.685V204.389H415.965C415.979 205.269 416.197 205.939 416.621 206.399C417.045 206.859 417.642 207.089 418.412 207.089C418.886 207.089 419.305 207.046 419.67 206.959C420.035 206.873 420.413 206.745 420.805 206.577V207.575C420.426 207.743 420.05 207.866 419.677 207.944C419.308 208.021 418.87 208.06 418.364 208.06C417.644 208.06 417.015 207.914 416.478 207.623C415.944 207.326 415.53 206.893 415.233 206.324C414.937 205.754 414.789 205.057 414.789 204.232C414.789 203.425 414.924 202.728 415.192 202.14C415.466 201.548 415.849 201.092 416.341 200.773C416.838 200.454 417.421 200.294 418.091 200.294ZM418.077 201.224C417.471 201.224 416.988 201.422 416.628 201.819C416.268 202.215 416.054 202.769 415.985 203.48H419.95C419.946 203.033 419.875 202.641 419.738 202.304C419.606 201.962 419.403 201.698 419.13 201.511C418.856 201.32 418.506 201.224 418.077 201.224ZM429.705 208.06C429.031 208.06 428.436 207.921 427.921 207.643C427.406 207.365 427.005 206.941 426.718 206.372C426.431 205.802 426.287 205.084 426.287 204.218C426.287 203.311 426.438 202.571 426.738 201.997C427.044 201.418 427.463 200.989 427.996 200.711C428.529 200.433 429.135 200.294 429.814 200.294C430.188 200.294 430.548 200.333 430.895 200.411C431.245 200.484 431.533 200.577 431.756 200.691L431.414 201.641C431.186 201.55 430.922 201.468 430.621 201.395C430.325 201.322 430.047 201.286 429.787 201.286C429.268 201.286 428.835 201.397 428.488 201.621C428.146 201.844 427.889 202.172 427.716 202.605C427.547 203.038 427.463 203.571 427.463 204.205C427.463 204.811 427.545 205.328 427.709 205.756C427.878 206.185 428.126 206.513 428.454 206.741C428.787 206.964 429.201 207.076 429.698 207.076C430.095 207.076 430.452 207.035 430.771 206.953C431.09 206.866 431.38 206.766 431.64 206.652V207.664C431.389 207.791 431.109 207.889 430.799 207.958C430.493 208.026 430.129 208.06 429.705 208.06ZM436.22 200.308C437.113 200.308 437.776 200.509 438.209 200.91C438.642 201.311 438.858 201.951 438.858 202.831V207.923H438.031L437.812 206.816H437.758C437.548 207.089 437.329 207.319 437.102 207.506C436.874 207.689 436.609 207.828 436.309 207.923C436.012 208.014 435.648 208.06 435.215 208.06C434.759 208.06 434.354 207.98 433.998 207.821C433.647 207.661 433.369 207.42 433.164 207.096C432.964 206.773 432.863 206.362 432.863 205.866C432.863 205.118 433.16 204.544 433.752 204.143C434.344 203.742 435.247 203.523 436.459 203.487L437.751 203.432V202.974C437.751 202.327 437.612 201.874 437.334 201.614C437.056 201.354 436.664 201.224 436.158 201.224C435.766 201.224 435.393 201.281 435.037 201.395C434.682 201.509 434.344 201.643 434.025 201.798L433.677 200.937C434.014 200.764 434.401 200.616 434.839 200.493C435.276 200.37 435.737 200.308 436.22 200.308ZM437.737 204.232L436.596 204.28C435.661 204.316 435.003 204.469 434.62 204.738C434.237 205.007 434.046 205.387 434.046 205.879C434.046 206.308 434.176 206.625 434.436 206.83C434.695 207.035 435.039 207.137 435.468 207.137C436.133 207.137 436.678 206.953 437.102 206.583C437.525 206.214 437.737 205.661 437.737 204.922V204.232ZM443.616 207.13C443.803 207.13 443.994 207.114 444.19 207.083C444.386 207.051 444.546 207.012 444.669 206.966V207.848C444.537 207.907 444.352 207.958 444.115 207.999C443.883 208.04 443.655 208.06 443.432 208.06C443.035 208.06 442.675 207.992 442.352 207.855C442.028 207.714 441.768 207.477 441.572 207.144C441.381 206.811 441.285 206.351 441.285 205.763V201.32H440.219V200.766L441.292 200.322L441.743 198.695H442.427V200.431H444.621V201.32H442.427V205.729C442.427 206.198 442.534 206.549 442.748 206.782C442.967 207.014 443.256 207.13 443.616 207.13ZM448.989 200.308C449.882 200.308 450.546 200.509 450.979 200.91C451.411 201.311 451.628 201.951 451.628 202.831V207.923H450.801L450.582 206.816H450.527C450.318 207.089 450.099 207.319 449.871 207.506C449.643 207.689 449.379 207.828 449.078 207.923C448.782 208.014 448.417 208.06 447.984 208.06C447.529 208.06 447.123 207.98 446.768 207.821C446.417 207.661 446.139 207.42 445.934 207.096C445.733 206.773 445.633 206.362 445.633 205.866C445.633 205.118 445.929 204.544 446.521 204.143C447.114 203.742 448.016 203.523 449.229 203.487L450.521 203.432V202.974C450.521 202.327 450.382 201.874 450.104 201.614C449.826 201.354 449.434 201.224 448.928 201.224C448.536 201.224 448.162 201.281 447.807 201.395C447.451 201.509 447.114 201.643 446.795 201.798L446.446 200.937C446.784 200.764 447.171 200.616 447.608 200.493C448.046 200.37 448.506 200.308 448.989 200.308ZM450.507 204.232L449.365 204.28C448.431 204.316 447.772 204.469 447.39 204.738C447.007 205.007 446.815 205.387 446.815 205.879C446.815 206.308 446.945 206.625 447.205 206.83C447.465 207.035 447.809 207.137 448.237 207.137C448.903 207.137 449.447 206.953 449.871 206.583C450.295 206.214 450.507 205.661 450.507 204.922V204.232ZM455.107 207.923H453.966V197.287H455.107V207.923ZM463.967 204.164C463.967 204.779 463.887 205.328 463.728 205.811C463.568 206.294 463.338 206.702 463.037 207.035C462.736 207.367 462.372 207.623 461.943 207.8C461.52 207.973 461.039 208.06 460.501 208.06C460 208.06 459.539 207.973 459.12 207.8C458.705 207.623 458.345 207.367 458.04 207.035C457.739 206.702 457.505 206.294 457.336 205.811C457.172 205.328 457.09 204.779 457.09 204.164C457.09 203.343 457.229 202.646 457.507 202.072C457.785 201.493 458.181 201.053 458.696 200.752C459.216 200.447 459.833 200.294 460.549 200.294C461.232 200.294 461.829 200.447 462.34 200.752C462.855 201.058 463.254 201.5 463.536 202.079C463.823 202.653 463.967 203.348 463.967 204.164ZM458.266 204.164C458.266 204.765 458.345 205.287 458.505 205.729C458.664 206.171 458.91 206.513 459.243 206.754C459.576 206.996 460.004 207.117 460.528 207.117C461.048 207.117 461.474 206.996 461.807 206.754C462.144 206.513 462.392 206.171 462.552 205.729C462.711 205.287 462.791 204.765 462.791 204.164C462.791 203.567 462.711 203.052 462.552 202.619C462.392 202.181 462.146 201.844 461.813 201.607C461.481 201.37 461.05 201.251 460.521 201.251C459.742 201.251 459.17 201.509 458.806 202.024C458.446 202.539 458.266 203.252 458.266 204.164ZM468.021 211.287C467.036 211.287 466.277 211.102 465.744 210.733C465.211 210.368 464.944 209.856 464.944 209.195C464.944 208.725 465.092 208.324 465.389 207.992C465.689 207.659 466.104 207.438 466.633 207.329C466.437 207.237 466.268 207.101 466.127 206.918C465.99 206.736 465.922 206.527 465.922 206.29C465.922 206.016 465.997 205.777 466.147 205.572C466.302 205.362 466.537 205.162 466.852 204.97C466.46 204.811 466.141 204.542 465.895 204.164C465.653 203.781 465.532 203.336 465.532 202.831C465.532 202.293 465.644 201.835 465.867 201.457C466.09 201.074 466.414 200.782 466.838 200.582C467.262 200.381 467.774 200.281 468.376 200.281C468.508 200.281 468.64 200.288 468.772 200.301C468.909 200.31 469.039 200.326 469.162 200.349C469.285 200.367 469.392 200.39 469.483 200.417H472.054V201.149L470.673 201.32C470.81 201.498 470.924 201.712 471.015 201.962C471.106 202.213 471.151 202.491 471.151 202.796C471.151 203.544 470.898 204.139 470.393 204.581C469.887 205.018 469.192 205.237 468.308 205.237C468.098 205.237 467.884 205.219 467.665 205.182C467.442 205.305 467.271 205.442 467.152 205.592C467.038 205.743 466.981 205.916 466.981 206.112C466.981 206.258 467.025 206.374 467.111 206.46C467.202 206.547 467.332 206.611 467.501 206.652C467.67 206.688 467.872 206.707 468.109 206.707H469.429C470.244 206.707 470.869 206.877 471.302 207.219C471.739 207.561 471.958 208.06 471.958 208.716C471.958 209.546 471.621 210.181 470.946 210.624C470.272 211.066 469.297 211.287 468.021 211.287ZM468.055 210.398C468.674 210.398 469.187 210.334 469.593 210.207C470.003 210.083 470.308 209.903 470.509 209.667C470.714 209.434 470.816 209.156 470.816 208.833C470.816 208.532 470.748 208.304 470.611 208.149C470.475 207.999 470.274 207.898 470.01 207.848C469.745 207.793 469.422 207.766 469.039 207.766H467.74C467.403 207.766 467.109 207.819 466.858 207.923C466.608 208.028 466.414 208.183 466.277 208.388C466.145 208.593 466.079 208.848 466.079 209.154C466.079 209.559 466.25 209.867 466.592 210.077C466.934 210.291 467.421 210.398 468.055 210.398ZM468.349 204.41C468.891 204.41 469.299 204.273 469.572 204C469.846 203.726 469.982 203.327 469.982 202.803C469.982 202.243 469.843 201.823 469.565 201.545C469.287 201.263 468.877 201.122 468.335 201.122C467.815 201.122 467.414 201.267 467.132 201.559C466.854 201.846 466.715 202.268 466.715 202.824C466.715 203.334 466.856 203.726 467.139 204C467.421 204.273 467.825 204.41 468.349 204.41Z" fill="#515767"/>
</svg>